<?xml version="1.0" encoding="iso-8859-1"?>
<!-- Uploaded to: SVG Repo, www.svgrepo.com, Generator: SVG Repo Mixer Tools -->
<svg height="800px" width="800px" version="1.1" id="Layer_1" xmlns="http://www.w3.org/2000/svg" xmlns:xlink="http://www.w3.org/1999/xlink" 
	 viewBox="0 0 392.663 392.663" xml:space="preserve">
<path style="fill:#FFFFFF;" d="M257.164,77.188V21.786H78.869c-5.301,0-9.632,4.331-9.632,9.632v329.568
	c0,5.301,4.331,9.632,9.632,9.632h234.925c5.301,0,9.632-4.331,9.632-9.632V88.113h-55.402
	C262.077,88.113,257.164,83.2,257.164,77.188z"/>
<path style="fill:#FFC10D;" d="M91.022,54.562v283.539c0,6.012,4.848,10.925,10.925,10.925H290.78
	c6.012,0,10.925-4.849,10.925-10.925V88.113h-33.616c-6.012,0-10.925-4.848-10.925-10.925V43.572H101.883
	C95.871,43.572,91.022,48.549,91.022,54.562z"/>
<g>
	<path style="fill:#194F82;" d="M271.257,226.004h-1.681v-91.41c0-6.012-4.848-10.925-10.925-10.925
		c-6.012,0-10.925,4.848-10.925,10.925v91.41h-12.541v-72.469c0-6.012-4.848-10.925-10.925-10.925
		c-6.012,0-10.925,4.848-10.925,10.925v72.469h-12.541v-53.463c0-6.012-4.848-10.925-10.925-10.925
		c-6.012,0-10.925,4.848-10.925,10.925v53.463H166.4v-34.457c0-6.012-4.848-10.925-10.925-10.925s-10.925,4.848-10.925,10.925
		v34.457h-12.218V125.931c0-6.012-4.848-10.925-10.925-10.925c-6.077,0-10.925,4.848-10.925,10.925v110.933
		c0,6.012,4.848,10.925,10.925,10.925h149.915c6.012,0,10.925-4.848,10.925-10.925C282.182,230.853,277.333,226.004,271.257,226.004
		z"/>
	<path style="fill:#194F82;" d="M277.398,286.772H115.2c-6.012,0-10.925-4.849-10.925-10.925c0-6.012,4.848-10.925,10.925-10.925
		h162.198c6.012,0,10.925,4.848,10.925,10.925C288.388,281.859,283.41,286.772,277.398,286.772z"/>
	<path style="fill:#194F82;" d="M277.398,328.404h-30.384c-6.012,0-10.925-4.848-10.925-10.925c0-6.012,4.848-10.925,10.925-10.925
		h30.384c6.012,0,10.925,4.848,10.925,10.925C288.259,323.556,283.41,328.404,277.398,328.404z"/>
	<path style="fill:#194F82;" d="M197.236,328.404H115.2c-6.012,0-10.925-4.848-10.925-10.925c0-6.012,4.848-10.925,10.925-10.925
		h81.972c6.012,0,10.925,4.848,10.925,10.925C208.097,323.556,203.313,328.404,197.236,328.404z"/>
</g>
<polygon style="fill:#56ACE0;" points="279.014,37.236 279.014,66.263 308.04,66.263 "/>
<path style="fill:#194F82;" d="M336.032,63.418L281.794,9.18C275.846,3.232,267.96,0,259.556,0H78.869
	c-17.39,0-31.547,14.158-31.547,31.547v329.568c0,17.39,14.158,31.547,31.547,31.547h234.925c17.39,0,31.547-14.158,31.547-31.547
	V85.721C345.341,77.317,341.98,69.366,336.032,63.418z M323.426,360.986c0,5.301-4.331,9.632-9.632,9.632H78.869
	c-5.301,0-9.632-4.331-9.632-9.632V31.547c0-5.301,4.331-9.632,9.632-9.632h178.295v55.402c0,6.012,4.849,10.925,10.925,10.925
	h55.402v272.743H323.426z M279.014,37.236l29.026,29.026h-29.026V37.236z"/>
</svg>